<mxfile host="app.diagrams.net" modified="2024-06-16T15:06:23.822Z" agent="Mozilla/5.0 (Windows NT 10.0; Win64; x64) AppleWebKit/537.36 (KHTML, like Gecko) Chrome/126.0.0.0 Safari/537.36 Edg/126.0.0.0" etag="PmLKmVmmRypQR_SargmW" version="24.5.4" type="github">
  <diagram name="Page-1" id="c4acf3e9-155e-7222-9cf6-157b1a14988f">
    <mxGraphModel dx="1431" dy="764" grid="1" gridSize="10" guides="1" tooltips="1" connect="1" arrows="1" fold="1" page="1" pageScale="1" pageWidth="850" pageHeight="1100" background="none" math="0" shadow="0">
      <root>
        <mxCell id="0" />
        <mxCell id="1" parent="0" />
        <mxCell id="iu4aAi_LDzSxDZydw5G4-11" value="" style="whiteSpace=wrap;html=1;aspect=fixed;" vertex="1" parent="1">
          <mxGeometry x="200" y="100" width="500" height="500" as="geometry" />
        </mxCell>
        <mxCell id="iu4aAi_LDzSxDZydw5G4-15" value="" style="edgeStyle=orthogonalEdgeStyle;rounded=0;orthogonalLoop=1;jettySize=auto;html=1;" edge="1" parent="1" source="iu4aAi_LDzSxDZydw5G4-1" target="iu4aAi_LDzSxDZydw5G4-3">
          <mxGeometry relative="1" as="geometry" />
        </mxCell>
        <mxCell id="iu4aAi_LDzSxDZydw5G4-16" style="edgeStyle=orthogonalEdgeStyle;rounded=0;orthogonalLoop=1;jettySize=auto;html=1;exitX=1;exitY=0.3333333333333333;exitDx=0;exitDy=0;exitPerimeter=0;entryX=0.5;entryY=0;entryDx=0;entryDy=0;" edge="1" parent="1" source="iu4aAi_LDzSxDZydw5G4-1" target="iu4aAi_LDzSxDZydw5G4-2">
          <mxGeometry relative="1" as="geometry">
            <Array as="points">
              <mxPoint x="170" y="340" />
              <mxPoint x="170" y="180" />
              <mxPoint x="300" y="180" />
            </Array>
          </mxGeometry>
        </mxCell>
        <mxCell id="iu4aAi_LDzSxDZydw5G4-17" style="edgeStyle=orthogonalEdgeStyle;rounded=0;orthogonalLoop=1;jettySize=auto;html=1;exitX=1;exitY=1;exitDx=0;exitDy=0;exitPerimeter=0;" edge="1" parent="1" source="iu4aAi_LDzSxDZydw5G4-1" target="iu4aAi_LDzSxDZydw5G4-4">
          <mxGeometry relative="1" as="geometry">
            <Array as="points">
              <mxPoint x="170" y="380" />
              <mxPoint x="170" y="520" />
              <mxPoint x="300" y="520" />
            </Array>
          </mxGeometry>
        </mxCell>
        <mxCell id="iu4aAi_LDzSxDZydw5G4-1" value="Cliente" style="shape=umlActor;verticalLabelPosition=bottom;verticalAlign=top;html=1;outlineConnect=0;" vertex="1" parent="1">
          <mxGeometry x="110" y="320" width="30" height="60" as="geometry" />
        </mxCell>
        <mxCell id="iu4aAi_LDzSxDZydw5G4-2" value="Realiza compras" style="ellipse;whiteSpace=wrap;html=1;" vertex="1" parent="1">
          <mxGeometry x="240" y="200" width="120" height="80" as="geometry" />
        </mxCell>
        <mxCell id="iu4aAi_LDzSxDZydw5G4-3" value="Acompanha pedidos" style="ellipse;whiteSpace=wrap;html=1;" vertex="1" parent="1">
          <mxGeometry x="240" y="310" width="120" height="80" as="geometry" />
        </mxCell>
        <mxCell id="iu4aAi_LDzSxDZydw5G4-4" value="Lista de desejos" style="ellipse;whiteSpace=wrap;html=1;" vertex="1" parent="1">
          <mxGeometry x="240" y="420" width="120" height="80" as="geometry" />
        </mxCell>
        <mxCell id="iu4aAi_LDzSxDZydw5G4-18" style="edgeStyle=orthogonalEdgeStyle;rounded=0;orthogonalLoop=1;jettySize=auto;html=1;exitX=0.5;exitY=0;exitDx=0;exitDy=0;exitPerimeter=0;" edge="1" parent="1" source="iu4aAi_LDzSxDZydw5G4-6" target="iu4aAi_LDzSxDZydw5G4-8">
          <mxGeometry relative="1" as="geometry">
            <Array as="points">
              <mxPoint x="775" y="230" />
              <mxPoint x="720" y="230" />
              <mxPoint x="720" y="130" />
              <mxPoint x="560" y="130" />
            </Array>
          </mxGeometry>
        </mxCell>
        <mxCell id="iu4aAi_LDzSxDZydw5G4-19" style="edgeStyle=orthogonalEdgeStyle;rounded=0;orthogonalLoop=1;jettySize=auto;html=1;exitX=0.25;exitY=0.1;exitDx=0;exitDy=0;exitPerimeter=0;" edge="1" parent="1" source="iu4aAi_LDzSxDZydw5G4-6" target="iu4aAi_LDzSxDZydw5G4-7">
          <mxGeometry relative="1" as="geometry">
            <Array as="points">
              <mxPoint x="710" y="256" />
              <mxPoint x="710" y="310" />
            </Array>
          </mxGeometry>
        </mxCell>
        <mxCell id="iu4aAi_LDzSxDZydw5G4-20" style="edgeStyle=orthogonalEdgeStyle;rounded=0;orthogonalLoop=1;jettySize=auto;html=1;exitX=0;exitY=0.3333333333333333;exitDx=0;exitDy=0;exitPerimeter=0;entryX=1;entryY=0.5;entryDx=0;entryDy=0;" edge="1" parent="1" source="iu4aAi_LDzSxDZydw5G4-6" target="iu4aAi_LDzSxDZydw5G4-10">
          <mxGeometry relative="1" as="geometry">
            <Array as="points">
              <mxPoint x="730" y="270" />
              <mxPoint x="730" y="410" />
            </Array>
          </mxGeometry>
        </mxCell>
        <mxCell id="iu4aAi_LDzSxDZydw5G4-21" style="edgeStyle=orthogonalEdgeStyle;rounded=0;orthogonalLoop=1;jettySize=auto;html=1;exitX=0;exitY=1;exitDx=0;exitDy=0;exitPerimeter=0;" edge="1" parent="1" source="iu4aAi_LDzSxDZydw5G4-6" target="iu4aAi_LDzSxDZydw5G4-9">
          <mxGeometry relative="1" as="geometry">
            <Array as="points">
              <mxPoint x="760" y="580" />
              <mxPoint x="570" y="580" />
            </Array>
          </mxGeometry>
        </mxCell>
        <mxCell id="iu4aAi_LDzSxDZydw5G4-6" value="Administrador" style="shape=umlActor;verticalLabelPosition=bottom;verticalAlign=top;html=1;outlineConnect=0;" vertex="1" parent="1">
          <mxGeometry x="760" y="250" width="30" height="60" as="geometry" />
        </mxCell>
        <mxCell id="iu4aAi_LDzSxDZydw5G4-7" value="Gerencia pedidos" style="ellipse;whiteSpace=wrap;html=1;" vertex="1" parent="1">
          <mxGeometry x="510" y="270" width="120" height="80" as="geometry" />
        </mxCell>
        <mxCell id="iu4aAi_LDzSxDZydw5G4-8" value="Gerencia produtos" style="ellipse;whiteSpace=wrap;html=1;" vertex="1" parent="1">
          <mxGeometry x="500" y="160" width="120" height="80" as="geometry" />
        </mxCell>
        <mxCell id="iu4aAi_LDzSxDZydw5G4-9" value="Gerencia Sistema" style="ellipse;whiteSpace=wrap;html=1;" vertex="1" parent="1">
          <mxGeometry x="510" y="470" width="120" height="80" as="geometry" />
        </mxCell>
        <mxCell id="iu4aAi_LDzSxDZydw5G4-10" value="Gerencia usuÃ¡rios" style="ellipse;whiteSpace=wrap;html=1;" vertex="1" parent="1">
          <mxGeometry x="520" y="370" width="120" height="80" as="geometry" />
        </mxCell>
        <mxCell id="iu4aAi_LDzSxDZydw5G4-12" value="Ecommerce de Livros" style="text;html=1;align=center;verticalAlign=middle;whiteSpace=wrap;rounded=0;" vertex="1" parent="1">
          <mxGeometry x="380" y="110" width="140" height="30" as="geometry" />
        </mxCell>
      </root>
    </mxGraphModel>
  </diagram>
</mxfile>
